<?xml version="1.0" encoding="UTF-8" standalone="no"?>
<!DOCTYPE svg PUBLIC "-//W3C//DTD SVG 1.1//EN"
 "http://www.w3.org/Graphics/SVG/1.1/DTD/svg11.dtd">
<!-- Generated by graphviz version 2.43.0 (0)
 -->
<!-- Title: CONTROL_MODULE_FSM Pages: 1 -->
<svg width="4053pt" height="332pt"
 viewBox="0.00 0.00 4053.00 332.00" xmlns="http://www.w3.org/2000/svg" xmlns:xlink="http://www.w3.org/1999/xlink">
<g id="graph0" class="graph" transform="scale(1 1) rotate(0) translate(4 328)">
<title>CONTROL_MODULE_FSM</title>
<polygon fill="white" stroke="transparent" points="-4,4 -4,-328 4049,-328 4049,4 -4,4"/>
<text text-anchor="middle" x="2022.5" y="-304" font-family="Times,serif" font-size="20.00">CONTROL_MODULE FSM (updated from corrected VHDL)</text>
<!-- INTERFACE -->
<g id="node1" class="node">
<title>INTERFACE</title>
<path fill="#f5f5f5" stroke="black" d="M254,-187C254,-187 12,-187 12,-187 6,-187 0,-181 0,-175 0,-175 0,-131 0,-131 0,-125 6,-119 12,-119 12,-119 254,-119 254,-119 260,-119 266,-125 266,-131 266,-131 266,-175 266,-175 266,-181 260,-187 254,-187"/>
<text text-anchor="middle" x="133" y="-171.8" font-family="Helvetica,sans-Serif" font-size="14.00">INTERFACE</text>
<text text-anchor="middle" x="133" y="-156.8" font-family="Helvetica,sans-Serif" font-size="14.00">ANA_INTERFACE_IN_MODSELECT=0</text>
<text text-anchor="middle" x="133" y="-141.8" font-family="Helvetica,sans-Serif" font-size="14.00">ANA_PD_EN=1</text>
<text text-anchor="middle" x="133" y="-126.8" font-family="Helvetica,sans-Serif" font-size="14.00">COUNT_DUTY_CYCLE:=0</text>
</g>
<!-- LISTEN -->
<g id="node2" class="node">
<title>LISTEN</title>
<path fill="#f5f5f5" stroke="black" d="M569,-187C569,-187 408,-187 408,-187 402,-187 396,-181 396,-175 396,-175 396,-131 396,-131 396,-125 402,-119 408,-119 408,-119 569,-119 569,-119 575,-119 581,-125 581,-131 581,-131 581,-175 581,-175 581,-181 575,-187 569,-187"/>
<text text-anchor="middle" x="488.5" y="-171.8" font-family="Helvetica,sans-Serif" font-size="14.00">LISTEN</text>
<text text-anchor="middle" x="488.5" y="-156.8" font-family="Helvetica,sans-Serif" font-size="14.00">LED=001</text>
<text text-anchor="middle" x="488.5" y="-141.8" font-family="Helvetica,sans-Serif" font-size="14.00">ANA_PD_EN=1</text>
<text text-anchor="middle" x="488.5" y="-126.8" font-family="Helvetica,sans-Serif" font-size="14.00">COUNT_DUTY_CYCLE++</text>
</g>
<!-- INTERFACE&#45;&gt;LISTEN -->
<g id="edge1" class="edge">
<title>INTERFACE&#45;&gt;LISTEN</title>
<path fill="none" stroke="black" d="M266.13,-153C305.66,-153 348.37,-153 385.63,-153"/>
<polygon fill="black" stroke="black" points="385.99,-156.5 395.99,-153 385.99,-149.5 385.99,-156.5"/>
<text text-anchor="middle" x="331" y="-156.8" font-family="Times,serif" font-size="14.00">reset release</text>
</g>
<!-- LISTEN&#45;&gt;LISTEN -->
<g id="edge3" class="edge">
<title>LISTEN&#45;&gt;LISTEN</title>
<path fill="none" stroke="black" d="M473.91,-187.01C474.34,-197.13 479.21,-205 488.5,-205 494.45,-205 498.59,-201.77 500.91,-196.79"/>
<polygon fill="black" stroke="black" points="504.33,-197.53 503.09,-187.01 497.5,-196 504.33,-197.53"/>
<text text-anchor="middle" x="488.5" y="-208.8" font-family="Times,serif" font-size="14.00">OUTFLAG=0 &amp; else</text>
</g>
<!-- LISTEN&#45;&gt;LISTEN -->
<g id="edge5" class="edge">
<title>LISTEN&#45;&gt;LISTEN</title>
<path fill="none" stroke="black" d="M460.55,-187.21C455.57,-205.89 464.89,-223 488.5,-223 507.69,-223 517.43,-211.71 517.74,-197.45"/>
<polygon fill="black" stroke="black" points="521.17,-196.7 516.45,-187.21 514.23,-197.57 521.17,-196.7"/>
<text text-anchor="middle" x="488.5" y="-226.8" font-family="Times,serif" font-size="14.00">OUTFLAG=1 &amp; else</text>
</g>
<!-- LISTEN_TO_SLEEP -->
<g id="node3" class="node">
<title>LISTEN_TO_SLEEP</title>
<path fill="#f5f5f5" stroke="black" d="M1306,-121.5C1306,-121.5 1064,-121.5 1064,-121.5 1058,-121.5 1052,-115.5 1052,-109.5 1052,-109.5 1052,-80.5 1052,-80.5 1052,-74.5 1058,-68.5 1064,-68.5 1064,-68.5 1306,-68.5 1306,-68.5 1312,-68.5 1318,-74.5 1318,-80.5 1318,-80.5 1318,-109.5 1318,-109.5 1318,-115.5 1312,-121.5 1306,-121.5"/>
<text text-anchor="middle" x="1185" y="-106.3" font-family="Helvetica,sans-Serif" font-size="14.00">LISTEN_TO_SLEEP</text>
<text text-anchor="middle" x="1185" y="-91.3" font-family="Helvetica,sans-Serif" font-size="14.00">COUNT_DUTY_CYCLE:=0</text>
<text text-anchor="middle" x="1185" y="-76.3" font-family="Helvetica,sans-Serif" font-size="14.00">ANA_INTERFACE_IN_MODSELECT=1</text>
</g>
<!-- LISTEN&#45;&gt;LISTEN_TO_SLEEP -->
<g id="edge2" class="edge">
<title>LISTEN&#45;&gt;LISTEN_TO_SLEEP</title>
<path fill="none" stroke="black" d="M581.06,-133.65C587.11,-132.66 593.14,-131.77 599,-131 749.37,-111.36 922.92,-102.39 1041.7,-98.32"/>
<polygon fill="black" stroke="black" points="1042.07,-101.81 1051.95,-97.97 1041.84,-94.81 1042.07,-101.81"/>
<text text-anchor="middle" x="816.5" y="-134.8" font-family="Times,serif" font-size="14.00">OUTFLAG=0 &amp; COUNT_DUTY_CYCLE&gt;=2 &amp; FORCE!=0x03</text>
</g>
<!-- START_UP_FSK -->
<g id="node6" class="node">
<title>START_UP_FSK</title>
<path fill="#f5f5f5" stroke="black" d="M1275,-252.5C1275,-252.5 1095,-252.5 1095,-252.5 1089,-252.5 1083,-246.5 1083,-240.5 1083,-240.5 1083,-211.5 1083,-211.5 1083,-205.5 1089,-199.5 1095,-199.5 1095,-199.5 1275,-199.5 1275,-199.5 1281,-199.5 1287,-205.5 1287,-211.5 1287,-211.5 1287,-240.5 1287,-240.5 1287,-246.5 1281,-252.5 1275,-252.5"/>
<text text-anchor="middle" x="1185" y="-237.3" font-family="Helvetica,sans-Serif" font-size="14.00">START_UP_FSK</text>
<text text-anchor="middle" x="1185" y="-222.3" font-family="Helvetica,sans-Serif" font-size="14.00">LED=010</text>
<text text-anchor="middle" x="1185" y="-207.3" font-family="Helvetica,sans-Serif" font-size="14.00">ANA_FREQ_DIVIDER_EN=1</text>
</g>
<!-- LISTEN&#45;&gt;START_UP_FSK -->
<g id="edge4" class="edge">
<title>LISTEN&#45;&gt;START_UP_FSK</title>
<path fill="none" stroke="black" d="M581.1,-171.27C587.15,-172.26 593.15,-173.18 599,-174 763.23,-196.99 954.89,-211.75 1072.85,-219.47"/>
<polygon fill="black" stroke="black" points="1072.77,-222.97 1082.98,-220.12 1073.23,-215.98 1072.77,-222.97"/>
<text text-anchor="middle" x="816.5" y="-219.8" font-family="Times,serif" font-size="14.00">OUTFLAG=1 &amp; FORCE!=0x02</text>
</g>
<!-- SLEEP -->
<g id="node4" class="node">
<title>SLEEP</title>
<path fill="#f5f5f5" stroke="black" d="M1568.5,-98.5C1568.5,-98.5 1407.5,-98.5 1407.5,-98.5 1401.5,-98.5 1395.5,-92.5 1395.5,-86.5 1395.5,-86.5 1395.5,-57.5 1395.5,-57.5 1395.5,-51.5 1401.5,-45.5 1407.5,-45.5 1407.5,-45.5 1568.5,-45.5 1568.5,-45.5 1574.5,-45.5 1580.5,-51.5 1580.5,-57.5 1580.5,-57.5 1580.5,-86.5 1580.5,-86.5 1580.5,-92.5 1574.5,-98.5 1568.5,-98.5"/>
<text text-anchor="middle" x="1488" y="-83.3" font-family="Helvetica,sans-Serif" font-size="14.00">SLEEP</text>
<text text-anchor="middle" x="1488" y="-68.3" font-family="Helvetica,sans-Serif" font-size="14.00">LED=111</text>
<text text-anchor="middle" x="1488" y="-53.3" font-family="Helvetica,sans-Serif" font-size="14.00">COUNT_DUTY_CYCLE++</text>
</g>
<!-- LISTEN_TO_SLEEP&#45;&gt;SLEEP -->
<g id="edge6" class="edge">
<title>LISTEN_TO_SLEEP&#45;&gt;SLEEP</title>
<path fill="none" stroke="black" d="M1318.02,-84.91C1340.52,-83.19 1363.58,-81.43 1385.15,-79.78"/>
<polygon fill="black" stroke="black" points="1385.57,-83.26 1395.27,-79.01 1385.04,-76.28 1385.57,-83.26"/>
</g>
<!-- SLEEP&#45;&gt;SLEEP -->
<g id="edge8" class="edge">
<title>SLEEP&#45;&gt;SLEEP</title>
<path fill="none" stroke="black" d="M1459.9,-98.94C1459.3,-108.61 1468.66,-116.5 1488,-116.5 1500.08,-116.5 1508.28,-113.42 1512.57,-108.75"/>
<polygon fill="black" stroke="black" points="1516.01,-109.53 1516.1,-98.94 1509.42,-107.16 1516.01,-109.53"/>
<text text-anchor="middle" x="1488" y="-120.3" font-family="Times,serif" font-size="14.00">else</text>
</g>
<!-- SLEEP_TO_LISTEN -->
<g id="node5" class="node">
<title>SLEEP_TO_LISTEN</title>
<path fill="#f5f5f5" stroke="black" d="M2136.5,-143C2136.5,-143 1894.5,-143 1894.5,-143 1888.5,-143 1882.5,-137 1882.5,-131 1882.5,-131 1882.5,-87 1882.5,-87 1882.5,-81 1888.5,-75 1894.5,-75 1894.5,-75 2136.5,-75 2136.5,-75 2142.5,-75 2148.5,-81 2148.5,-87 2148.5,-87 2148.5,-131 2148.5,-131 2148.5,-137 2142.5,-143 2136.5,-143"/>
<text text-anchor="middle" x="2015.5" y="-127.8" font-family="Helvetica,sans-Serif" font-size="14.00">SLEEP_TO_LISTEN</text>
<text text-anchor="middle" x="2015.5" y="-112.8" font-family="Helvetica,sans-Serif" font-size="14.00">COUNT_DUTY_CYCLE:=0</text>
<text text-anchor="middle" x="2015.5" y="-97.8" font-family="Helvetica,sans-Serif" font-size="14.00">ANA_PD_EN=1</text>
<text text-anchor="middle" x="2015.5" y="-82.8" font-family="Helvetica,sans-Serif" font-size="14.00">ANA_INTERFACE_IN_MODSELECT=0</text>
</g>
<!-- SLEEP&#45;&gt;SLEEP_TO_LISTEN -->
<g id="edge7" class="edge">
<title>SLEEP&#45;&gt;SLEEP_TO_LISTEN</title>
<path fill="none" stroke="black" d="M1580.54,-78.44C1660.97,-84.11 1779.32,-92.44 1872.12,-98.98"/>
<polygon fill="black" stroke="black" points="1871.94,-102.47 1882.16,-99.68 1872.43,-95.49 1871.94,-102.47"/>
<text text-anchor="middle" x="1740" y="-98.8" font-family="Times,serif" font-size="14.00">COUNT_DUTY_CYCLE&gt;=15</text>
</g>
<!-- SLEEP_TO_LISTEN&#45;&gt;LISTEN -->
<g id="edge9" class="edge">
<title>SLEEP_TO_LISTEN&#45;&gt;LISTEN</title>
<path fill="none" stroke="black" d="M1882.13,-122.11C1805.86,-129.07 1708.13,-137 1621,-141 1241.49,-158.42 789.66,-156.37 591.34,-154.32"/>
<polygon fill="black" stroke="black" points="591.26,-150.82 581.23,-154.22 591.19,-157.82 591.26,-150.82"/>
</g>
<!-- START_UP_BACKSCATTER -->
<g id="node7" class="node">
<title>START_UP_BACKSCATTER</title>
<path fill="#f5f5f5" stroke="black" d="M1609,-286C1609,-286 1367,-286 1367,-286 1361,-286 1355,-280 1355,-274 1355,-274 1355,-200 1355,-200 1355,-194 1361,-188 1367,-188 1367,-188 1609,-188 1609,-188 1615,-188 1621,-194 1621,-200 1621,-200 1621,-274 1621,-274 1621,-280 1615,-286 1609,-286"/>
<text text-anchor="middle" x="1488" y="-270.8" font-family="Helvetica,sans-Serif" font-size="14.00">START_UP_BACKSCATTER</text>
<text text-anchor="middle" x="1488" y="-255.8" font-family="Helvetica,sans-Serif" font-size="14.00">LED=011</text>
<text text-anchor="middle" x="1488" y="-240.8" font-family="Helvetica,sans-Serif" font-size="14.00">ANA_INTERFACE_IN_MODSELECT=0</text>
<text text-anchor="middle" x="1488" y="-225.8" font-family="Helvetica,sans-Serif" font-size="14.00">ANA_MOD_EN=1</text>
<text text-anchor="middle" x="1488" y="-210.8" font-family="Helvetica,sans-Serif" font-size="14.00">ANA_MUX_EN=1</text>
<text text-anchor="middle" x="1488" y="-195.8" font-family="Helvetica,sans-Serif" font-size="14.00">RESET counters</text>
</g>
<!-- START_UP_FSK&#45;&gt;START_UP_BACKSCATTER -->
<g id="edge10" class="edge">
<title>START_UP_FSK&#45;&gt;START_UP_BACKSCATTER</title>
<path fill="none" stroke="black" d="M1287.07,-229.69C1305.61,-230.37 1325.28,-231.09 1344.76,-231.8"/>
<polygon fill="black" stroke="black" points="1344.81,-235.31 1354.93,-232.17 1345.06,-228.31 1344.81,-235.31"/>
</g>
<!-- BACKSATTER -->
<g id="node8" class="node">
<title>BACKSATTER</title>
<path fill="#f5f5f5" stroke="black" d="M2160,-253C2160,-253 1871,-253 1871,-253 1865,-253 1859,-247 1859,-241 1859,-241 1859,-197 1859,-197 1859,-191 1865,-185 1871,-185 1871,-185 2160,-185 2160,-185 2166,-185 2172,-191 2172,-197 2172,-197 2172,-241 2172,-241 2172,-247 2166,-253 2160,-253"/>
<text text-anchor="middle" x="2015.5" y="-237.8" font-family="Helvetica,sans-Serif" font-size="14.00">BACKSATTER</text>
<text text-anchor="middle" x="2015.5" y="-222.8" font-family="Helvetica,sans-Serif" font-size="14.00">DATA_REG_MUX_SEL = seq_nibble || bitcnt</text>
<text text-anchor="middle" x="2015.5" y="-207.8" font-family="Helvetica,sans-Serif" font-size="14.00">bitcnt++</text>
<text text-anchor="middle" x="2015.5" y="-192.8" font-family="Helvetica,sans-Serif" font-size="14.00">idle:=0</text>
</g>
<!-- START_UP_BACKSCATTER&#45;&gt;BACKSATTER -->
<g id="edge11" class="edge">
<title>START_UP_BACKSCATTER&#45;&gt;BACKSATTER</title>
<path fill="none" stroke="black" d="M1621.27,-232.47C1690.23,-230.11 1775.27,-227.19 1848.61,-224.68"/>
<polygon fill="black" stroke="black" points="1849,-228.17 1858.88,-224.33 1848.76,-221.18 1849,-228.17"/>
</g>
<!-- WAIT_BACKSATTER -->
<g id="node9" class="node">
<title>WAIT_BACKSATTER</title>
<path fill="#f5f5f5" stroke="black" d="M2721,-238C2721,-238 2593,-238 2593,-238 2587,-238 2581,-232 2581,-226 2581,-226 2581,-212 2581,-212 2581,-206 2587,-200 2593,-200 2593,-200 2721,-200 2721,-200 2727,-200 2733,-206 2733,-212 2733,-212 2733,-226 2733,-226 2733,-232 2727,-238 2721,-238"/>
<text text-anchor="middle" x="2657" y="-222.8" font-family="Helvetica,sans-Serif" font-size="14.00">WAIT_BACKSATTER</text>
<text text-anchor="middle" x="2657" y="-207.8" font-family="Helvetica,sans-Serif" font-size="14.00">idle++ (target≈26)</text>
</g>
<!-- BACKSATTER&#45;&gt;WAIT_BACKSATTER -->
<g id="edge13" class="edge">
<title>BACKSATTER&#45;&gt;WAIT_BACKSATTER</title>
<path fill="none" stroke="black" d="M2172.12,-219C2297.4,-219 2468.81,-219 2570.4,-219"/>
<polygon fill="black" stroke="black" points="2570.62,-222.5 2580.62,-219 2570.62,-215.5 2570.62,-222.5"/>
<text text-anchor="middle" x="2376.5" y="-222.8" font-family="Times,serif" font-size="14.00">else</text>
</g>
<!-- REPEAT_DATA -->
<g id="node10" class="node">
<title>REPEAT_DATA</title>
<path fill="#f5f5f5" stroke="black" d="M2701,-182C2701,-182 2613,-182 2613,-182 2607,-182 2601,-176 2601,-170 2601,-170 2601,-126 2601,-126 2601,-120 2607,-114 2613,-114 2613,-114 2701,-114 2701,-114 2707,-114 2713,-120 2713,-126 2713,-126 2713,-170 2713,-170 2713,-176 2707,-182 2701,-182"/>
<text text-anchor="middle" x="2657" y="-166.8" font-family="Helvetica,sans-Serif" font-size="14.00">REPEAT_DATA</text>
<text text-anchor="middle" x="2657" y="-151.8" font-family="Helvetica,sans-Serif" font-size="14.00">bitcnt:=0</text>
<text text-anchor="middle" x="2657" y="-136.8" font-family="Helvetica,sans-Serif" font-size="14.00">repeat++</text>
<text text-anchor="middle" x="2657" y="-121.8" font-family="Helvetica,sans-Serif" font-size="14.00">delay_cnt:=0</text>
</g>
<!-- BACKSATTER&#45;&gt;REPEAT_DATA -->
<g id="edge12" class="edge">
<title>BACKSATTER&#45;&gt;REPEAT_DATA</title>
<path fill="none" stroke="black" d="M2096.08,-184.92C2120.47,-174.42 2147.36,-162.78 2172,-152 2180.02,-148.49 2181.44,-145.82 2190,-144 2330.22,-114.24 2499.55,-127.59 2590.54,-138.63"/>
<polygon fill="black" stroke="black" points="2590.35,-142.13 2600.71,-139.9 2591.22,-135.19 2590.35,-142.13"/>
<text text-anchor="middle" x="2376.5" y="-147.8" font-family="Times,serif" font-size="14.00">bitcnt&gt;=31</text>
</g>
<!-- WAIT_BACKSATTER&#45;&gt;BACKSATTER -->
<g id="edge14" class="edge">
<title>WAIT_BACKSATTER&#45;&gt;BACKSATTER</title>
<path fill="none" stroke="black" d="M2580.77,-233.06C2574.77,-233.84 2568.79,-234.51 2563,-235 2397.82,-249.11 2355.6,-242.62 2190,-235 2187.42,-234.88 2184.82,-234.75 2182.21,-234.62"/>
<polygon fill="black" stroke="black" points="2182.23,-231.11 2172.05,-234.04 2181.83,-238.1 2182.23,-231.11"/>
<text text-anchor="middle" x="2376.5" y="-246.8" font-family="Times,serif" font-size="14.00">idle&gt;=26</text>
</g>
<!-- WAIT_BACKSATTER&#45;&gt;WAIT_BACKSATTER -->
<g id="edge15" class="edge">
<title>WAIT_BACKSATTER&#45;&gt;WAIT_BACKSATTER</title>
<path fill="none" stroke="black" d="M2613.33,-238.04C2607.29,-247.53 2621.84,-256 2657,-256 2678.97,-256 2692.9,-252.69 2698.78,-247.89"/>
<polygon fill="black" stroke="black" points="2702.22,-248.52 2700.67,-238.04 2695.35,-247.2 2702.22,-248.52"/>
<text text-anchor="middle" x="2657" y="-259.8" font-family="Times,serif" font-size="14.00">else</text>
</g>
<!-- REPEAT_DATA&#45;&gt;BACKSATTER -->
<g id="edge16" class="edge">
<title>REPEAT_DATA&#45;&gt;BACKSATTER</title>
<path fill="none" stroke="black" d="M2600.93,-154.59C2588.46,-156.06 2575.28,-157.6 2563,-159 2544.06,-161.16 2335.97,-183.99 2182.16,-200.85"/>
<polygon fill="black" stroke="black" points="2181.67,-197.38 2172.11,-201.95 2182.43,-204.34 2181.67,-197.38"/>
<text text-anchor="middle" x="2376.5" y="-201.8" font-family="Times,serif" font-size="14.00">repeat &lt; CFREG_DATA_BANK_REPEAT &amp; DELAY=0</text>
</g>
<!-- SEQUENCE_NEXT -->
<g id="node11" class="node">
<title>SEQUENCE_NEXT</title>
<path fill="#f5f5f5" stroke="black" d="M3307.5,-107C3307.5,-107 3193.5,-107 3193.5,-107 3187.5,-107 3181.5,-101 3181.5,-95 3181.5,-95 3181.5,-81 3181.5,-81 3181.5,-75 3187.5,-69 3193.5,-69 3193.5,-69 3307.5,-69 3307.5,-69 3313.5,-69 3319.5,-75 3319.5,-81 3319.5,-81 3319.5,-95 3319.5,-95 3319.5,-101 3313.5,-107 3307.5,-107"/>
<text text-anchor="middle" x="3250.5" y="-91.8" font-family="Helvetica,sans-Serif" font-size="14.00">SEQUENCE_NEXT</text>
<text text-anchor="middle" x="3250.5" y="-76.8" font-family="Helvetica,sans-Serif" font-size="14.00">seq_index++</text>
</g>
<!-- REPEAT_DATA&#45;&gt;SEQUENCE_NEXT -->
<g id="edge18" class="edge">
<title>REPEAT_DATA&#45;&gt;SEQUENCE_NEXT</title>
<path fill="none" stroke="black" d="M2713.02,-128.46C2725.38,-124.74 2738.53,-121.3 2751,-119 2829.3,-104.57 3051.8,-94.89 3171.31,-90.57"/>
<polygon fill="black" stroke="black" points="3171.63,-94.06 3181.5,-90.21 3171.38,-87.07 3171.63,-94.06"/>
<text text-anchor="middle" x="2898.5" y="-122.8" font-family="Times,serif" font-size="14.00">repeat reached target</text>
</g>
<!-- DELAY -->
<g id="node12" class="node">
<title>DELAY</title>
<path fill="#f5f5f5" stroke="black" d="M4033,-167C4033,-167 3724,-167 3724,-167 3718,-167 3712,-161 3712,-155 3712,-155 3712,-141 3712,-141 3712,-135 3718,-129 3724,-129 3724,-129 4033,-129 4033,-129 4039,-129 4045,-135 4045,-141 4045,-141 4045,-155 4045,-155 4045,-161 4039,-167 4033,-167"/>
<text text-anchor="middle" x="3878.5" y="-151.8" font-family="Helvetica,sans-Serif" font-size="14.00">DELAY</text>
<text text-anchor="middle" x="3878.5" y="-136.8" font-family="Helvetica,sans-Serif" font-size="14.00">delay_cnt++ until CFREG_DELAY_DATA_BANK</text>
</g>
<!-- REPEAT_DATA&#45;&gt;DELAY -->
<g id="edge17" class="edge">
<title>REPEAT_DATA&#45;&gt;DELAY</title>
<path fill="none" stroke="black" d="M2713.17,-148C2885.82,-148 3421.01,-148 3701.66,-148"/>
<polygon fill="black" stroke="black" points="3701.95,-151.5 3711.95,-148 3701.95,-144.5 3701.95,-151.5"/>
<text text-anchor="middle" x="3250.5" y="-151.8" font-family="Times,serif" font-size="14.00">repeat &lt; CFREG_DATA_BANK_REPEAT &amp; DELAY&gt;0</text>
</g>
<!-- SEQUENCE_NEXT&#45;&gt;BACKSATTER -->
<g id="edge20" class="edge">
<title>SEQUENCE_NEXT&#45;&gt;BACKSATTER</title>
<path fill="none" stroke="black" d="M3181.36,-81.41C2974.07,-62.69 2355.17,-17 2190,-121 2176.52,-129.49 2183.92,-141.43 2172,-152 2159.59,-163.01 2145.1,-172.42 2130.05,-180.4"/>
<polygon fill="black" stroke="black" points="2128.45,-177.29 2121.13,-184.94 2131.63,-183.52 2128.45,-177.29"/>
<text text-anchor="middle" x="2657" y="-59.8" font-family="Times,serif" font-size="14.00">else &amp; DELAY=0</text>
</g>
<!-- SEQUENCE_NEXT&#45;&gt;DELAY -->
<g id="edge21" class="edge">
<title>SEQUENCE_NEXT&#45;&gt;DELAY</title>
<path fill="none" stroke="black" d="M3319.51,-90.93C3406.53,-95.1 3561.82,-103.95 3694,-119 3714.47,-121.33 3736.15,-124.3 3757.17,-127.45"/>
<polygon fill="black" stroke="black" points="3756.68,-130.92 3767.09,-128.96 3757.73,-124 3756.68,-130.92"/>
<text text-anchor="middle" x="3574.5" y="-122.8" font-family="Times,serif" font-size="14.00">else &amp; DELAY&gt;0</text>
</g>
<!-- START_UP_LISTEN -->
<g id="node13" class="node">
<title>START_UP_LISTEN</title>
<path fill="#f5f5f5" stroke="black" d="M3999.5,-98C3999.5,-98 3757.5,-98 3757.5,-98 3751.5,-98 3745.5,-92 3745.5,-86 3745.5,-86 3745.5,-12 3745.5,-12 3745.5,-6 3751.5,0 3757.5,0 3757.5,0 3999.5,0 3999.5,0 4005.5,0 4011.5,-6 4011.5,-12 4011.5,-12 4011.5,-86 4011.5,-86 4011.5,-92 4005.5,-98 3999.5,-98"/>
<text text-anchor="middle" x="3878.5" y="-82.8" font-family="Helvetica,sans-Serif" font-size="14.00">START_UP_LISTEN</text>
<text text-anchor="middle" x="3878.5" y="-67.8" font-family="Helvetica,sans-Serif" font-size="14.00">LED=101</text>
<text text-anchor="middle" x="3878.5" y="-52.8" font-family="Helvetica,sans-Serif" font-size="14.00">ANA_INTERFACE_IN_MODSELECT=0</text>
<text text-anchor="middle" x="3878.5" y="-37.8" font-family="Helvetica,sans-Serif" font-size="14.00">ANA_FREQ_DIVIDER_EN=0</text>
<text text-anchor="middle" x="3878.5" y="-22.8" font-family="Helvetica,sans-Serif" font-size="14.00">ANA_MOD_EN=0</text>
<text text-anchor="middle" x="3878.5" y="-7.8" font-family="Helvetica,sans-Serif" font-size="14.00">ANA_MUX_EN=0</text>
</g>
<!-- SEQUENCE_NEXT&#45;&gt;START_UP_LISTEN -->
<g id="edge19" class="edge">
<title>SEQUENCE_NEXT&#45;&gt;START_UP_LISTEN</title>
<path fill="none" stroke="black" d="M3319.68,-83.75C3418.9,-77.57 3605.36,-65.95 3735.27,-57.86"/>
<polygon fill="black" stroke="black" points="3735.54,-61.35 3745.31,-57.24 3735.11,-54.36 3735.54,-61.35"/>
<text text-anchor="middle" x="3574.5" y="-78.8" font-family="Times,serif" font-size="14.00">seq_index&gt;=9 OR nibble==1111</text>
</g>
<!-- DELAY&#45;&gt;BACKSATTER -->
<g id="edge22" class="edge">
<title>DELAY&#45;&gt;BACKSATTER</title>
<path fill="none" stroke="black" d="M3775.73,-167.06C3557.5,-206.03 3028.01,-290.28 2581,-280 2407.08,-276 2362.15,-287.05 2190,-262 2177.4,-260.17 2164.38,-257.82 2151.4,-255.16"/>
<polygon fill="black" stroke="black" points="2151.99,-251.71 2141.48,-253.07 2150.55,-258.56 2151.99,-251.71"/>
<text text-anchor="middle" x="2898.5" y="-282.8" font-family="Times,serif" font-size="14.00">delay_cnt==CFREG_DELAY_DATA_BANK</text>
</g>
<!-- DELAY&#45;&gt;DELAY -->
<g id="edge23" class="edge">
<title>DELAY&#45;&gt;DELAY</title>
<path fill="none" stroke="black" d="M3823.18,-167.04C3815.53,-176.53 3833.97,-185 3878.5,-185 3906.33,-185 3923.97,-181.69 3931.42,-176.89"/>
<polygon fill="black" stroke="black" points="3934.85,-177.58 3933.82,-167.04 3928.05,-175.93 3934.85,-177.58"/>
<text text-anchor="middle" x="3878.5" y="-188.8" font-family="Times,serif" font-size="14.00">else</text>
</g>
<!-- START_UP_LISTEN&#45;&gt;LISTEN -->
<g id="edge24" class="edge">
<title>START_UP_LISTEN&#45;&gt;LISTEN</title>
<path fill="none" stroke="black" d="M3745.4,-38.32C3618.78,-29.02 3422.22,-17 3251.5,-17 1184,-17 1184,-17 1184,-17 921.76,-17 848.54,-13.37 599,-94 583.34,-99.06 567.31,-106.33 552.51,-114.05"/>
<polygon fill="black" stroke="black" points="550.62,-111.09 543.46,-118.9 553.93,-117.26 550.62,-111.09"/>
<text text-anchor="middle" x="2015.5" y="-20.8" font-family="Times,serif" font-size="14.00">return to duty cycle</text>
</g>
</g>
</svg>
